# xmcd CD database file
#
# Track frame offsets:
#	150
#	17924
#	32944
#	52574
#	69230
#	84003
#	100306
#	115224
#	128903
#	142154
#	159578
#	174081
#	190436
#	203781
#	221034
#	236774
#	253867
#	268271
#	288300
#
# Disc length: 4020 seconds
#
# Revision: 0
# Processed by: cddbd v1.5.1PL2 Copyright (c) Steve Scherf et al.
# Submitted via: CDex 1.51
#
DISCID=150fb213
DTITLE=Promo Only Canada - Country Radio October 2005
DYEAR=2005
DGENRE=Country
TTITLE0=Shania Twain - Shoes (Radio Edit)
TTITLE1=Alan Jackson - USA Today
TTITLE2=Faith Hill - Like We Never Loved At All
TTITLE3=Keith Anderson - XXL
TTITLE4=George Strait - She Let Herself Go (Album Version)
TTITLE5=Doc Walker - I Am Ready
TTITLE6=Aaron Lines - It Takes A Man
TTITLE7=George Canyon - Who Would You Be
TTITLE8=Toby Keith - Big Blue Note (Album Version)
TTITLE9=Reba McEntire - You're Gonna Be
TTITLE10=Martina McBride - (I Never Promised You A) Rose Garden
TTITLE11=Neal McCoy - Billy's Got His Beer Goggles On
TTITLE12=Corb Lund - Truck Got Stuck
TTITLE13=Lisa Hewitt - Take Me There
TTITLE14=Gil Grand - These Wheels Won't Roll
TTITLE15=Jon Randall - I Shouldn't Do This
TTITLE16=Steve Holy - It's My Time (Waste It If I Want To)
TTITLE17=Cowboy Troy - If You Don't Want To Love Me (Radio Edit)
TTITLE18=Trick Pony - Ain't Wastin' Good Whiskey On You
EXTD=YEAR: 2005
EXTT0=
EXTT1=
EXTT2=
EXTT3=
EXTT4=
EXTT5=
EXTT6=
EXTT7=
EXTT8=
EXTT9=
EXTT10=
EXTT11=
EXTT12=
EXTT13=
EXTT14=
EXTT15=
EXTT16=
EXTT17=
EXTT18=
PLAYORDER=
